<svg xmlns="http://www.w3.org/2000/svg" width="295" height="58" viewBox="0 0 295 58">
    <defs>
        <linearGradient id="b76v5ny1oa" x1="16.305%" x2="86.96%" y1="38.739%" y2="106.54%">
            <stop offset="0%" stop-color="#FFD280"/>
            <stop offset="0%" stop-color="#FFD280"/>
            <stop offset="30%" stop-color="#D9AE6D"/>
            <stop offset="57%" stop-color="#BE955F"/>
            <stop offset="81%" stop-color="#AE8557"/>
            <stop offset="100%" stop-color="#A88054"/>
        </linearGradient>
    </defs>
    <g fill="none">
        <path fill="#050033" d="M94.96 9.667h7.002c1.726 0 2.754.802 2.754 2.155 0 1.354-1.076 2.282-2.754 2.282h-7.003V9.667zm-2.503-2.262v14.258h2.502v-5.394h5.616l4.316 5.394h3.103l-4.713-5.597c2.483-.57 3.996-1.991 3.996-4.466 0-2.794-2.377-4.195-5.383-4.195h-9.437zM8.603 10.005l3.103 6.264H5.5l3.104-6.264zm-1.222-2.6L0 21.663h2.832l1.571-3.18h8.4l1.58 3.18h2.91l-7.4-14.258H7.38zM21.87 14.5c0 3.944 3.152 7.511 8.632 7.511 2.84.168 5.581-1.073 7.323-3.316L35.788 17.4c-1.227 1.66-3.222 2.58-5.286 2.436-3.685 0-6.061-2.069-6.061-5.259 0-3.19 2.376-5.297 6.061-5.297 2.065-.147 4.061.773 5.286 2.436l2.037-1.353c-1.736-2.242-4.467-3.49-7.303-3.335-5.48 0-8.632 3.567-8.632 7.501M44.614 14.5c0 3.944 3.152 7.511 8.631 7.511 2.84.157 5.573-1.095 7.304-3.345L58.502 17.4c-1.227 1.66-3.221 2.58-5.286 2.436-3.685 0-6.061-2.069-6.061-5.259 0-3.19 2.376-5.297 6.061-5.297 2.065-.147 4.061.773 5.286 2.436l2.017-1.353c-1.734-2.243-4.466-3.49-7.303-3.335-5.48 0-8.602 3.605-8.602 7.472M69.83 14.5c0-3.2 2.386-5.278 6.071-5.278 3.686 0 6.062 2.078 6.062 5.278 0 3.2-2.376 5.278-6.062 5.278-3.685 0-6.07-2.04-6.07-5.278m-2.523 0c0 3.944 3.153 7.511 8.632 7.511 5.48 0 8.632-3.567 8.632-7.511s-3.104-7.472-8.632-7.472-8.632 3.605-8.632 7.472M183.886 9.667h7.002c1.727 0 2.755.802 2.755 2.155 0 1.354-1.086 2.282-2.755 2.282h-7.002V9.667zm-2.522-2.262v14.258h2.503v-5.394h5.605l4.326 5.394h3.084l-4.713-5.597c2.483-.57 3.996-1.991 3.996-4.466 0-2.794-2.377-4.195-5.383-4.195h-9.418zM166.37 10.005l3.104 6.264h-6.207l3.103-6.264zm-1.231-2.6l-7.371 14.258h2.822l1.58-3.18h8.4l1.571 3.18h2.91l-7.39-14.258h-2.522zM257.091 10.005l3.104 6.264h-6.207l3.103-6.264zm-1.222-2.6l-7.38 14.258h2.832l1.57-3.18h8.4l1.542 3.18h2.91L258.38 7.405h-2.512zM239.129 7.424L239.129 18.657 230.042 7.424 229.295 7.424 227.026 7.424 226.764 7.424 226.764 21.644 229.295 21.644 229.295 10.227 238.528 21.644 239.129 21.644 241.535 21.644 241.661 21.644 241.661 7.424zM219.082 9.618L219.082 7.405 204.942 7.405 204.942 7.434 204.913 7.434 204.913 21.653 204.942 21.653 204.942 21.653 219.082 21.653 219.082 19.449 207.444 19.449 207.444 16.24 215.63 16.24 215.63 14.036 207.444 14.036 207.444 9.618z" transform="translate(15.356 14.5)"/>
        <path fill="url(#b76v5ny1oa)" d="M146.604 28.623h-6.682l-4.917-10.208c-2.687 1.45-4.219 4.833-6.935 7.037-1.488 1.246-3.194 2.206-5.033 2.833-.997.334-2.018.59-3.055.763-.243 0-.417 0-.456-.067-.039-.068 0-.126.3-.252.796-.334 1.564-.728 2.3-1.179.758-.408 1.318-1.106 1.55-1.933-.26-.967-2.142-2.987-.222-6.767.688-1.353 1.29-2.33 1.717-3.306.503-1.237.83-2.539.97-3.867 0-.067 0-.067.058 0 .97.967 4.568 4.67 4.044 8.372 1.515-.71 2.946-1.586 4.267-2.61.97-.793 1.678-1.615 2.764-1.634 1.087-.02 1.048.445 1.814.541.21.026.423 0 .62-.077.059 0 .05-.097 0-.116-1.056-.251-1.309-1.102-2.666-1.102-1.213 0-2.183 1.121-2.91 1.576L130.7 9.493c-1.436-2.987-.97-5.153 2.163-9.416l13.742 28.546z" transform="translate(15.356 14.5)"/>
    </g>
</svg>